<svg width="130" height="31" viewBox="0 0 130 31" fill="none" xmlns="http://www.w3.org/2000/svg">
<path d="M21.92 27.4C21.92 27.6133 21.7867 27.8933 21.52 28.24C21.28 28.56 20.9333 28.88 20.48 29.2C20.0533 29.52 19.5467 29.8 18.96 30.04C18.4 30.28 17.8 30.4 17.16 30.4C16.1733 30.4 15.3067 30.0933 14.56 29.48C13.8133 28.84 13.1333 27.9733 12.52 26.88C11.9333 25.7867 11.3867 24.4933 10.88 23C10.3733 21.48 9.85333 19.84 9.32 18.08L7.8 19.08L7.04 29.4C7.01333 29.6133 6.96 29.7733 6.88 29.88C6.8 29.96 6.64 30 6.4 30H4.2C2.68 30 1.6 29.7067 0.96 29.12C0.346667 28.5067 0.0400001 27.6133 0.0400001 26.44C0.0400001 26.0667 0.0533334 25.5067 0.08 24.76C0.133333 23.9867 0.2 23.0933 0.28 22.08C0.36 21.04 0.44 19.9067 0.52 18.68C0.626667 17.4533 0.733333 16.2 0.84 14.92C1.02667 12.36 1.17333 10.3333 1.28 8.84C1.41333 7.34667 1.50667 6.17333 1.56 5.32C1.61333 4.44 1.65333 3.8 1.68 3.4C1.70667 2.97333 1.72 2.57333 1.72 2.2C1.72 1.8 1.93333 1.6 2.36 1.6H4.56C5.41333 1.6 6.09333 1.69333 6.6 1.88C7.13333 2.04 7.54667 2.28 7.84 2.6C8.13333 2.92 8.33333 3.32 8.44 3.8C8.54667 4.25333 8.6 4.78667 8.6 5.4C8.6 6.01333 8.56 7.01333 8.48 8.4C8.42667 9.76 8.33333 11.2933 8.2 13C9.10667 11.88 10.1867 10.4933 11.44 8.84C12.72 7.18667 14.2667 5.14667 16.08 2.72C16.16 2.61333 16.2667 2.48 16.4 2.32C16.56 2.13333 16.72 1.96 16.88 1.8C17.0667 1.64 17.2533 1.50667 17.44 1.4C17.6533 1.26667 17.8533 1.2 18.04 1.2C18.3867 1.2 18.7867 1.38667 19.24 1.76C19.6933 2.10667 20.12 2.54667 20.52 3.08C20.92 3.58666 21.2533 4.12 21.52 4.68C21.8133 5.21333 21.96 5.66667 21.96 6.04C21.96 6.81333 21.2667 7.97333 19.88 9.52C18.4933 11.04 16.5067 12.8 13.92 14.8C14.3733 15.5733 14.8933 16.4133 15.48 17.32C16.0667 18.2 16.6533 19.1067 17.24 20.04C17.8267 20.9467 18.4 21.84 18.96 22.72C19.52 23.5733 20.0133 24.3467 20.44 25.04C20.8933 25.7067 21.2533 26.2533 21.52 26.68C21.7867 27.1067 21.92 27.3467 21.92 27.4ZM37.4819 17.56C37.3219 17.56 37.1352 17.56 36.9219 17.56C36.7352 17.5333 36.5485 17.5067 36.3619 17.48C36.1752 17.4267 36.0152 17.3733 35.8819 17.32C35.7485 17.24 35.6819 17.1467 35.6819 17.04C35.6819 16.6933 35.6952 16.3733 35.7219 16.08C35.7485 15.7867 35.7619 15.48 35.7619 15.16C35.7619 14.5733 35.6819 14.0933 35.5219 13.72C35.3619 13.3467 35.0419 13.16 34.5619 13.16C33.8152 13.16 33.1885 13.6533 32.6819 14.64C32.2019 15.6 31.8952 17.0533 31.7619 19C31.7085 19.8533 31.6285 20.8267 31.5219 21.92C31.4419 22.9867 31.3619 24.0267 31.2819 25.04C31.2019 26.0267 31.1352 26.9067 31.0819 27.68C31.0285 28.4533 31.0019 28.96 31.0019 29.2C31.0019 29.4667 30.9085 29.6667 30.7219 29.8C30.5352 29.9333 30.3352 30 30.1219 30H28.6819C27.8552 30 27.1752 29.92 26.6419 29.76C26.1352 29.5733 25.7219 29.32 25.4019 29C25.1085 28.68 24.8952 28.2933 24.7619 27.84C24.6552 27.36 24.6019 26.8133 24.6019 26.2C24.6019 25.8 24.6152 25.24 24.6419 24.52C24.6952 23.7733 24.7752 22.76 24.8819 21.48C24.9885 20.1733 25.1085 18.5333 25.2419 16.56C25.4019 14.56 25.5885 12.0933 25.8019 9.16C25.8552 8.38667 26.1352 8 26.6419 8H28.2019C28.9485 8 29.5752 8.08 30.0819 8.24C30.5885 8.4 31.0019 8.62667 31.3219 8.92C31.6419 9.18667 31.8685 9.50667 32.0019 9.88C32.1619 10.2533 32.2685 10.64 32.3219 11.04C32.6419 10.4267 33.0152 9.90667 33.4419 9.48C33.8952 9.02667 34.3619 8.66667 34.8419 8.4C35.3219 8.10667 35.8152 7.90667 36.3219 7.8C36.8285 7.66667 37.2952 7.6 37.7219 7.6C38.2285 7.6 38.7352 7.69333 39.2419 7.88C39.7752 8.06667 40.2552 8.34667 40.6819 8.72C41.1085 9.09333 41.4419 9.57333 41.6819 10.16C41.9485 10.7467 42.0819 11.44 42.0819 12.24C42.0819 12.96 41.9752 13.64 41.7619 14.28C41.5485 14.92 41.2419 15.4933 40.8419 16C40.4419 16.48 39.9485 16.8667 39.3619 17.16C38.8019 17.4267 38.1752 17.56 37.4819 17.56ZM51.3425 11.4C51.3425 11.96 51.2892 12.7467 51.1825 13.76C51.1025 14.7733 51.0092 15.8267 50.9025 16.92C50.8225 18.0133 50.7292 19.04 50.6225 20C50.5425 20.96 50.5025 21.6533 50.5025 22.08C50.5025 23.0133 50.7292 23.7467 51.1825 24.28C51.6625 24.7867 52.3158 25.04 53.1425 25.04C53.8625 25.04 54.4625 24.76 54.9425 24.2C55.4492 23.6133 55.8492 22.8667 56.1425 21.96C56.4625 21.0267 56.7158 19.9733 56.9025 18.8C57.0892 17.6267 57.2225 16.44 57.3025 15.24C57.4092 14.04 57.4892 12.88 57.5425 11.76C57.6225 10.6133 57.7025 9.62667 57.7825 8.8C57.8092 8.58666 57.8892 8.4 58.0225 8.24C58.1558 8.08 58.3692 8 58.6625 8H60.1025C60.9292 8 61.5958 8.09333 62.1025 8.28C62.6358 8.44 63.0492 8.68 63.3425 9C63.6625 9.32 63.8758 9.72 63.9825 10.2C64.1158 10.6533 64.1825 11.1867 64.1825 11.8C64.1825 12.2 64.1558 12.7733 64.1025 13.52C64.0758 14.24 64.0092 15.2533 63.9025 16.56C63.7958 17.84 63.6625 19.48 63.5025 21.48C63.3692 23.4533 63.1958 25.9067 62.9825 28.84C62.9292 29.4 62.8625 29.7333 62.7825 29.84C62.7292 29.9467 62.5158 30 62.1425 30H60.5825C59.7825 30 59.1158 29.9067 58.5825 29.72C58.0758 29.5333 57.6625 29.2933 57.3425 29C57.0225 28.7067 56.7958 28.36 56.6625 27.96C56.5292 27.56 56.4492 27.1467 56.4225 26.72C56.0225 27.4133 55.5692 28 55.0625 28.48C54.5825 28.96 54.0758 29.3467 53.5425 29.64C53.0092 29.9067 52.4625 30.0933 51.9025 30.2C51.3425 30.3333 50.7958 30.4 50.2625 30.4C49.2492 30.4 48.3425 30.24 47.5425 29.92C46.7425 29.5733 46.0625 29.12 45.5025 28.56C44.9692 28 44.5558 27.3333 44.2625 26.56C43.9692 25.7867 43.8225 24.96 43.8225 24.08C43.8225 23.7333 43.8358 23.1733 43.8625 22.4C43.9158 21.6 43.9692 20.7067 44.0225 19.72C44.1025 18.7333 44.1825 17.6933 44.2625 16.6C44.3425 15.48 44.4092 14.4267 44.4625 13.44C44.5425 12.4533 44.6092 11.5867 44.6625 10.84C44.7425 10.0933 44.7958 9.56 44.8225 9.24C44.8758 8.76 44.9825 8.44 45.1425 8.28C45.3025 8.09333 45.5692 8 45.9425 8H47.2225C48.0492 8 48.7292 8.08 49.2625 8.24C49.7958 8.4 50.2092 8.62667 50.5025 8.92C50.8225 9.21333 51.0358 9.57333 51.1425 10C51.2758 10.4 51.3425 10.8667 51.3425 11.4ZM86.6869 26.76C86.6869 26.8933 86.6202 27.16 86.4869 27.56C86.3535 27.96 86.1402 28.3733 85.8469 28.8C85.5535 29.2267 85.1802 29.6 84.7269 29.92C84.3002 30.24 83.7802 30.4 83.1669 30.4C82.4469 30.4 81.7269 30.16 81.0069 29.68C80.3135 29.2 79.6202 28.5467 78.9269 27.72C78.2335 26.8933 77.5269 25.92 76.8069 24.8C76.1135 23.6533 75.4069 22.4133 74.6869 21.08C74.5802 22.4933 74.4735 23.88 74.3669 25.24C74.2602 26.6 74.1535 27.92 74.0469 29.2C74.0202 29.52 73.9535 29.7333 73.8469 29.84C73.7402 29.9467 73.5135 30 73.1669 30H71.7269C70.9002 30 70.2202 29.92 69.6869 29.76C69.1535 29.5733 68.7402 29.32 68.4469 29C68.1535 28.68 67.9402 28.28 67.8069 27.8C67.7002 27.2933 67.6469 26.72 67.6469 26.08C67.6469 25.76 67.6602 25.4267 67.6869 25.08C67.7135 24.7333 67.7535 24.24 67.8069 23.6C67.8602 22.96 67.9269 22.12 68.0069 21.08C68.1135 20.04 68.2335 18.6667 68.3669 16.96C68.5002 15.2533 68.6469 13.16 68.8069 10.68C68.9935 8.17333 69.1935 5.13333 69.4069 1.56C69.4335 0.973332 69.5002 0.626665 69.6069 0.519998C69.6869 0.439999 69.9002 0.4 70.2469 0.4H71.8069C72.6335 0.4 73.3135 0.493333 73.8469 0.679998C74.3802 0.866666 74.8069 1.12 75.1269 1.44C75.4469 1.76 75.6602 2.13333 75.7669 2.56C75.9002 2.98667 75.9669 3.42667 75.9669 3.88C75.9669 4.14667 75.9402 4.6 75.8869 5.24C75.8602 5.85333 75.8202 6.61333 75.7669 7.52C75.7135 8.4 75.6335 9.4 75.5269 10.52C75.4469 11.64 75.3669 12.8133 75.2869 14.04L81.6869 8.2C81.9269 7.98667 82.1402 7.84 82.3269 7.76C82.5402 7.68 82.7002 7.64 82.8069 7.64C83.1002 7.64 83.4202 7.82667 83.7669 8.2C84.1135 8.57333 84.4335 9.01333 84.7269 9.52C85.0469 10 85.3002 10.5067 85.4869 11.04C85.7002 11.5467 85.8069 11.96 85.8069 12.28C85.8069 13.0533 85.1802 13.8667 83.9269 14.72C82.7002 15.5733 80.8335 16.5333 78.3269 17.6C79.4469 18.8533 80.5135 20 81.5269 21.04C82.5402 22.08 83.4202 23 84.1669 23.8C84.9402 24.6 85.5535 25.2533 86.0069 25.76C86.4602 26.2667 86.6869 26.6 86.6869 26.76ZM96.8894 11.4C96.8894 11.96 96.836 12.7467 96.7294 13.76C96.6494 14.7733 96.556 15.8267 96.4494 16.92C96.3694 18.0133 96.276 19.04 96.1694 20C96.0894 20.96 96.0494 21.6533 96.0494 22.08C96.0494 23.0133 96.276 23.7467 96.7294 24.28C97.2094 24.7867 97.8627 25.04 98.6894 25.04C99.4094 25.04 100.009 24.76 100.489 24.2C100.996 23.6133 101.396 22.8667 101.689 21.96C102.009 21.0267 102.263 19.9733 102.449 18.8C102.636 17.6267 102.769 16.44 102.849 15.24C102.956 14.04 103.036 12.88 103.089 11.76C103.169 10.6133 103.249 9.62667 103.329 8.8C103.356 8.58666 103.436 8.4 103.569 8.24C103.703 8.08 103.916 8 104.209 8H105.649C106.476 8 107.143 8.09333 107.649 8.28C108.183 8.44 108.596 8.68 108.889 9C109.209 9.32 109.423 9.72 109.529 10.2C109.663 10.6533 109.729 11.1867 109.729 11.8C109.729 12.2 109.703 12.7733 109.649 13.52C109.623 14.24 109.556 15.2533 109.449 16.56C109.343 17.84 109.209 19.48 109.049 21.48C108.916 23.4533 108.743 25.9067 108.529 28.84C108.476 29.4 108.409 29.7333 108.329 29.84C108.276 29.9467 108.063 30 107.689 30H106.129C105.329 30 104.663 29.9067 104.129 29.72C103.623 29.5333 103.209 29.2933 102.889 29C102.569 28.7067 102.343 28.36 102.209 27.96C102.076 27.56 101.996 27.1467 101.969 26.72C101.569 27.4133 101.116 28 100.609 28.48C100.129 28.96 99.6227 29.3467 99.0894 29.64C98.556 29.9067 98.0094 30.0933 97.4494 30.2C96.8894 30.3333 96.3427 30.4 95.8094 30.4C94.796 30.4 93.8894 30.24 93.0894 29.92C92.2894 29.5733 91.6094 29.12 91.0494 28.56C90.516 28 90.1027 27.3333 89.8094 26.56C89.516 25.7867 89.3694 24.96 89.3694 24.08C89.3694 23.7333 89.3827 23.1733 89.4094 22.4C89.4627 21.6 89.516 20.7067 89.5694 19.72C89.6494 18.7333 89.7294 17.6933 89.8094 16.6C89.8894 15.48 89.956 14.4267 90.0094 13.44C90.0894 12.4533 90.156 11.5867 90.2094 10.84C90.2894 10.0933 90.3427 9.56 90.3694 9.24C90.4227 8.76 90.5294 8.44 90.6894 8.28C90.8494 8.09333 91.116 8 91.4894 8H92.7694C93.596 8 94.276 8.08 94.8094 8.24C95.3427 8.4 95.756 8.62667 96.0494 8.92C96.3694 9.21333 96.5827 9.57333 96.6894 10C96.8227 10.4 96.8894 10.8667 96.8894 11.4ZM122.554 7.6C124.82 7.6 126.487 8.05333 127.554 8.96C128.62 9.84 129.154 10.9733 129.154 12.36C129.154 13.5333 128.78 14.4267 128.034 15.04C127.314 15.6533 126.26 15.96 124.874 15.96C124.5 15.96 124.247 15.92 124.114 15.84C123.98 15.76 123.914 15.6133 123.914 15.4C123.914 15.16 123.887 14.8933 123.834 14.6C123.807 14.28 123.714 13.9867 123.554 13.72C123.42 13.4267 123.194 13.1867 122.874 13C122.58 12.8133 122.154 12.72 121.594 12.72C120.847 12.72 120.247 12.9067 119.794 13.28C119.34 13.6267 119.114 14.0667 119.114 14.6C119.114 15.16 119.34 15.6133 119.794 15.96C120.274 16.28 120.86 16.5867 121.554 16.88C122.274 17.1733 123.047 17.48 123.874 17.8C124.7 18.0933 125.46 18.4933 126.154 19C126.874 19.5067 127.46 20.1467 127.914 20.92C128.394 21.6667 128.634 22.64 128.634 23.84C128.634 25.76 127.954 27.3333 126.594 28.56C125.234 29.7867 123.194 30.4 120.474 30.4C119.727 30.4 118.86 30.3333 117.874 30.2C116.914 30.0933 115.994 29.92 115.114 29.68C114.234 29.4133 113.487 29.0667 112.874 28.64C112.287 28.2133 111.994 27.68 111.994 27.04C111.994 26.8 112.034 26.5067 112.114 26.16C112.22 25.8133 112.367 25.48 112.554 25.16C112.767 24.84 113.007 24.5733 113.274 24.36C113.567 24.12 113.914 24 114.314 24C114.634 24 114.927 24.08 115.194 24.24C115.46 24.4 115.767 24.5733 116.114 24.76C116.487 24.92 116.94 25.08 117.474 25.24C118.007 25.4 118.714 25.48 119.594 25.48C120.26 25.48 120.847 25.4 121.354 25.24C121.887 25.08 122.154 24.72 122.154 24.16C122.154 23.6533 121.94 23.2533 121.514 22.96C121.087 22.64 120.54 22.3467 119.874 22.08C119.234 21.8133 118.527 21.5333 117.754 21.24C117.007 20.92 116.3 20.5067 115.634 20C114.994 19.4933 114.46 18.8533 114.034 18.08C113.607 17.28 113.394 16.2533 113.394 15C113.394 13.64 113.66 12.4933 114.194 11.56C114.754 10.6 115.46 9.82667 116.314 9.24C117.194 8.65333 118.18 8.24 119.274 8C120.367 7.73333 121.46 7.6 122.554 7.6Z" fill="black"/>
</svg>
